<?xml version="1.0" standalone="no"?>
<!DOCTYPE svg PUBLIC "-//W3C//DTD SVG 20010904//EN"
 "http://www.w3.org/TR/2001/REC-SVG-20010904/DTD/svg10.dtd">
<svg version="1.0" xmlns="http://www.w3.org/2000/svg"
 width="154.000000pt" height="179.000000pt" viewBox="0 0 154.000000 179.000000"
 preserveAspectRatio="xMidYMid meet">

<g transform="translate(0.000000,179.000000) scale(0.100000,-0.100000)"
fill="#000000" stroke="none">
<path d="M575 1759 c-191 -28 -359 -136 -463 -298 -104 -160 -135 -364 -86
-556 35 -133 135 -274 248 -347 160 -103 445 -133 676 -70 l63 17 1 277 1 278
-86 0 -86 0 4 -127 c2 -71 8 -173 13 -228 4 -55 6 -102 3 -105 -2 -3 -55 -7
-117 -8 -185 -6 -306 36 -411 142 -107 109 -155 228 -155 386 0 212 85 367
243 445 120 58 243 67 421 30 38 -8 72 -12 75 -10 2 3 10 39 16 80 14 85 21
78 -85 95 -76 12 -190 11 -275 -1z"/>
<path d="M729 1320 c-63 -8 -189 -36 -197 -45 -2 -2 -5 -128 -5 -279 l-2 -276
86 0 86 0 -4 138 c-2 75 -8 178 -13 227 -4 50 -6 92 -3 95 13 14 227 11 296
-4 230 -51 388 -262 388 -516 -1 -274 -150 -458 -398 -491 -84 -11 -205 -2
-297 22 -21 6 -40 8 -43 5 -3 -3 -11 -39 -18 -80 l-11 -75 50 -13 c30 -7 107
-13 186 -12 109 0 150 4 215 23 121 34 209 85 290 166 123 125 190 273 201
444 21 320 -173 589 -471 654 -89 20 -250 28 -336 17z"/>
</g>
</svg>
